<?xml version="1.0" encoding="utf-8"?>
<!-- Generator: Adobe Illustrator 16.0.0, SVG Export Plug-In . SVG Version: 6.00 Build 0)  -->
<!DOCTYPE svg PUBLIC "-//W3C//DTD SVG 1.1//EN" "http://www.w3.org/Graphics/SVG/1.1/DTD/svg11.dtd">
<svg version="1.1" id="Layer_5" xmlns="http://www.w3.org/2000/svg" xmlns:xlink="http://www.w3.org/1999/xlink" x="0px" y="0px"
	 width="504.566px" height="702.992px" viewBox="0 0 504.566 702.992" enable-background="new 0 0 504.566 702.992"
	 xml:space="preserve">
<path display="none" fill="#FFFFFF" d="M457.95,42.001c-2.2,1.5-5.4,1.3-6.8,3.8c0.8,0,1.3-0.6,2-0.9
	C454.75,44.001,457.45,43.801,457.95,42.001z"/>
<path display="none" fill="#FFFFFF" d="M465.15,48.301c-0.601,0-0.5,1-0.9,1.5c0.4,5,2.2,9.5,2,14.7
	C468.05,59.101,466.05,53.501,465.15,48.301z"/>
<path display="none" fill="#FFFFFF" d="M452.578,47.203c-0.563,1.043-0.707,2.124-0.16,2.979c0.314,0.452,1.359,0.181,1.729-0.201
	c0.289-0.295,0.454-0.519,0.454-0.519s0.46,0.258,0.869,0.114c0.464-0.141,0.663-0.299,0.91-0.921
	c0.247-0.623,0.142-2.184-0.319-2.076c-0.462,0.108-0.287,1.067-0.41,1.497c-0.439,0.444-0.751,0.026-0.812-0.262
	c-0.07-0.336,0.003-0.851-0.331-1.172c-0.563,0.523-0.311,1.249-0.377,1.784c-0.047,0.374-0.361,0.756-0.992,0.708
	c-0.852-0.411-0.18-1.793-0.168-2.003C452.984,46.92,452.664,47.05,452.578,47.203z"/>
<g>
	<g>
		<path fill="#00B1EB" stroke="#000000" stroke-width="0.2332" d="M274.917,10.715h-3.21c0.264-0.449,0.114-1.302-0.15-1.732
			c0,0-0.751-1.315-1.578-0.933c0,0,2.278,1.494,0.553,2.367c-1.581,0.799-2.616-0.772-2.616-0.772s-1.082-2.971-4.066-2.388
			c0,0,1.169-1.778,4.496-1.397c0,0,2.371-0.399,0.903-3.059C269.248,2.801,275.954,3.873,274.917,10.715z"/>
		<polygon fill="#00B1EB" stroke="#000000" stroke-width="0.2332" points="362.3,6.257 363.603,7.275 361.721,9.353 360.952,8.888 
			347.331,8.888 346.563,9.353 344.681,7.275 345.983,6.257 		"/>
		<path fill="#00B1EB" stroke="#000000" stroke-width="0.2332" d="M279.745,8.887c0,0-2.183-0.447-3.254,1.211
			c-0.969,1.499-0.501-3.117,3.505-3.843l8.906,0.003l1.304,1.018l-1.882,2.078l-0.77-0.465L279.745,8.887z"/>
		<path fill="#00B1EB" stroke="#000000" stroke-width="0.2332" d="M377.908,10.531h3.222c-0.442-0.742-0.438-0.796,0.29-2.041
			c0,0,0.863-1.25,1.654-0.802c0,0-2.401,1.305-0.758,2.314c1.505,0.923,2.674-0.561,2.674-0.561s1.34-2.873,4.263-2.053
			c0,0-1.009-1.866-4.357-1.753c0,0-2.328-0.588-0.632-3.12C384.264,2.515,377.476,3.629,377.908,10.531z"/>
		<polygon fill="#00B1EB" stroke="#000000" stroke-width="0.2332" points="325.601,6.257 326.904,7.275 325.022,9.353 
			324.254,8.888 310.632,8.888 309.863,9.353 307.981,7.275 309.285,6.257 		"/>
		<path fill="#00B1EB" stroke="#000000" stroke-width="0.2332" d="M145.079,10.531h-3.222c0.442-0.742,0.438-0.796-0.291-2.041
			c0,0-0.863-1.25-1.654-0.802c0,0,2.401,1.305,0.759,2.314c-1.505,0.923-2.675-0.561-2.675-0.561s-1.339-2.873-4.262-2.053
			c0,0,1.009-1.866,4.357-1.753c0,0,2.328-0.588,0.631-3.12C138.723,2.515,145.511,3.629,145.079,10.531z"/>
		<polygon fill="#00B1EB" stroke="#000000" stroke-width="0.2332" points="232.476,6.257 233.778,7.275 231.897,9.353 
			231.128,8.888 217.507,8.888 216.738,9.353 214.856,7.275 216.159,6.257 		"/>
		<path fill="#00B1EB" stroke="#000000" stroke-width="0.2332" d="M149.921,8.887c0,0-2.183-0.447-3.254,1.211
			c-0.969,1.499-0.5-3.117,3.505-3.843l8.906,0.003l1.304,1.018L158.5,9.353l-0.769-0.465L149.921,8.887z"/>
		<polygon fill="#00B1EB" stroke="#000000" stroke-width="0.2332" points="195.777,6.257 197.08,7.275 195.198,9.353 194.43,8.888 
			180.808,8.888 180.039,9.353 178.157,7.275 179.461,6.257 		"/>
		<path fill="#00B1EB" stroke="#000000" stroke-width="0.2332" d="M260.098,17.383c2.608,1.381,5.109,2.625,5.896,3.014
			c1.637,0.811,2.624-0.868,2.624-0.868l-1.802-0.954l2.677-1.693l5.477,3.112c-1.885-0.654-4.711,2.082-4.711,2.082
			c-3.239,1.942-6.331,0.048-6.331,0.048c-2.756-1.257-4.793-2.184-6.509-3.048L260.098,17.383z"/>
		<path fill="#00B1EB" stroke="#000000" stroke-width="0.2332" d="M261.481,21.349l-1.148,0.654c0,0-2.914,2.043-6.32,0.266
			c0,0-3.066-2.59-4.888-1.844l9.329-6.031l2.743,1.466l-5.775,3.786c0,0,1.135,1.625,2.696,0.736l0.615-0.318L261.481,21.349z"/>
		<polygon fill="#00B1EB" stroke="#000000" stroke-width="0.2332" points="264.717,19.327 272.907,14.165 268.019,14.165 
			262.133,17.938 		"/>
		<polygon fill="#00B1EB" stroke="#000000" stroke-width="0.2332" points="305.979,13.712 307.282,12.695 305.4,10.616 
			304.632,11.082 292.707,11.082 291.938,10.616 290.057,12.695 291.36,13.712 		"/>
		<path fill="#00B1EB" stroke="#000000" stroke-width="0.2332" d="M255.606,15.074c-6.525-2.408-4.435-6.584-4.435-6.584
			s0.863-1.25,1.654-0.802c0,0-2.4,1.305-0.758,2.314c1.504,0.923,2.674-0.561,2.674-0.561s1.34-2.873,4.262-2.053
			c0,0-1.009-1.866-4.357-1.753c0,0-2.329-0.588-0.631-3.12c0,0-7.303,1.472-6.038,9.648c0,0,1.158,3.468,5.189,4.43L255.606,15.074
			z"/>
		<polygon fill="#00B1EB" stroke="#000000" stroke-width="0.2332" points="366.635,10.93 365.681,9.933 364.063,12.112 
			365.287,13.56 387.175,13.56 390.499,11.514 389.82,10.926 389.82,10.926 		"/>
		<polygon fill="#00B1EB" stroke="#000000" stroke-width="0.2332" points="343.473,13.712 344.776,12.695 342.895,10.616 
			342.126,11.082 330.308,11.082 329.538,10.616 327.656,12.695 328.96,13.712 		"/>
		<path fill="#00B1EB" stroke="#000000" stroke-width="0.2332" d="M373.146,8.872c0,0,2.368-0.128,3.254,1.201
			c0.99,1.486,0.501-3.103-3.504-3.83h-7.974l-4.136,4.822h-13.062l-4.455-4.802l-14.769-0.005l-3.886,4.808h-14.173l-4.236-4.808
			h-14.758l-4.028,4.808h-24.177l-1.325,0.869l3.022,1.764h23.769l4.205-4.806h11.578l4.147,4.806h17.661l4.155-4.789h11.438
			l4.295,4.789h16.153l3.727-4.826H373.146z"/>
		<path fill="#00B1EB" stroke="#000000" stroke-width="0.2332" d="M392.713,17.383c-2.608,1.381-5.109,2.625-5.895,3.014
			c-1.638,0.811-2.624-0.868-2.624-0.868l1.801-0.954l-2.677-1.693l-5.476,3.112c1.884-0.654,4.711,2.082,4.711,2.082
			c3.238,1.942,6.33,0.048,6.33,0.048c2.756-1.257,4.794-2.184,6.509-3.048L392.713,17.383z"/>
		<path fill="#00B1EB" stroke="#000000" stroke-width="0.2332" d="M399.179,13.523h-4.086l-4.64,2.517l-2.667-1.655l5.624-3.302
			h7.81C401.22,11.083,401.242,12.403,399.179,13.523z"/>
		<path fill="#00B1EB" stroke="#000000" stroke-width="0.2332" d="M391.33,21.349l1.148,0.654c0,0,2.914,2.043,6.32,0.266
			c0,0,3.066-2.59,4.888-1.844l-9.328-6.031l-2.744,1.466l5.776,3.786c0,0-1.136,1.625-2.696,0.736l-0.616-0.318L391.33,21.349z"/>
		<polygon fill="#00B1EB" stroke="#000000" stroke-width="0.2332" points="388.095,19.327 379.903,14.165 384.792,14.165 
			390.679,17.938 		"/>
		<path fill="#00B1EB" stroke="#000000" stroke-width="0.2332" d="M397.204,15.074c6.525-2.408,4.435-6.584,4.435-6.584
			s-0.863-1.25-1.654-0.802c0,0,2.402,1.305,0.759,2.314c-1.505,0.923-2.674-0.561-2.674-0.561s-1.34-2.873-4.263-2.053
			c0,0,1.009-1.866,4.357-1.753c0,0,2.328-0.588,0.631-3.12c0,0,7.304,1.472,6.038,9.648c0,0-1.159,3.468-5.189,4.43L397.204,15.074
			z"/>
		<path fill="#00B1EB" stroke="#000000" stroke-width="0.2332" d="M372.896,15.358c4.005,0.726,4.494,5.315,3.504,3.83
			c-0.886-1.329-3.254-1.201-3.254-1.201l-93.4,0.015c0,0-2.183-0.447-3.254,1.211c-0.969,1.498-0.501-3.117,3.505-3.844
			L372.896,15.358z"/>
		<path fill="#00B1EB" stroke="#000000" stroke-width="0.2332" d="M130.274,17.383c2.607,1.381,5.108,2.625,5.895,3.014
			c1.637,0.811,2.624-0.868,2.624-0.868l-1.802-0.954l2.678-1.693l5.476,3.112c-1.884-0.654-4.711,2.082-4.711,2.082
			c-3.239,1.942-6.33,0.048-6.33,0.048c-2.756-1.257-4.794-2.184-6.509-3.048L130.274,17.383z"/>
		<path fill="#00B1EB" stroke="#000000" stroke-width="0.2332" d="M131.657,21.349l-1.148,0.654c0,0-2.914,2.043-6.32,0.266
			c0,0-3.066-2.59-4.888-1.844l9.328-6.031l2.743,1.466l-5.775,3.786c0,0,1.136,1.625,2.696,0.736l0.616-0.318L131.657,21.349z"/>
		<polygon fill="#00B1EB" stroke="#000000" stroke-width="0.2332" points="134.893,19.327 143.083,14.165 138.194,14.165 
			132.309,17.938 		"/>
		<polygon fill="#00B1EB" stroke="#000000" stroke-width="0.2332" points="176.154,13.712 177.458,12.695 175.576,10.616 
			174.808,11.082 162.883,11.082 162.114,10.616 160.232,12.695 161.536,13.712 		"/>
		<path fill="#00B1EB" stroke="#000000" stroke-width="0.2332" d="M125.783,15.074c-6.526-2.408-4.436-6.584-4.436-6.584
			s0.864-1.25,1.654-0.802c0,0-2.401,1.305-0.758,2.314c1.505,0.923,2.674-0.561,2.674-0.561s1.34-2.873,4.263-2.053
			c0,0-1.009-1.866-4.358-1.753c0,0-2.327-0.588-0.631-3.12c0,0-7.303,1.472-6.038,9.648c0,0,1.159,3.468,5.19,4.43L125.783,15.074z
			"/>
		<path fill="#00B1EB" stroke="#000000" stroke-width="0.2332" d="M247.433,13.56h-11.969l-1.224-1.448l1.616-2.18l0.954,0.998
			l10.087-0.004l0,0C246.898,10.926,246.474,11.894,247.433,13.56z"/>
		<polygon fill="#00B1EB" stroke="#000000" stroke-width="0.2332" points="213.649,13.712 214.952,12.695 213.07,10.616 
			212.302,11.082 200.483,11.082 199.715,10.616 197.833,12.695 199.136,13.712 		"/>
		<path fill="#00B1EB" stroke="#000000" stroke-width="0.2332" d="M243.322,8.872c0,0,2.367-0.128,3.254,1.201
			c0.99,1.486,0.5-3.103-3.504-3.83h-7.974l-4.136,4.822H217.9l-4.454-4.802l-14.77-0.005l-3.886,4.808h-14.172l-4.237-4.808
			h-14.758l-4.028,4.808H133.42l-1.326,0.869l3.022,1.764h23.77l4.204-4.806h11.578l4.147,4.806h17.661l4.155-4.789h11.438
			l4.296,4.789h16.152l3.727-4.826H243.322z"/>
		<path fill="#00B1EB" stroke="#000000" stroke-width="0.2332" d="M243.072,15.358c4.004,0.726,4.494,5.315,3.504,3.83
			c-0.887-1.329-3.254-1.201-3.254-1.201l-93.401,0.015c0,0-2.183-0.447-3.254,1.211c-0.969,1.498-0.5-3.117,3.505-3.844
			L243.072,15.358z"/>
		<path fill="#00B1EB" stroke="#000000" stroke-width="0.2332" d="M254.057,13.523h3.768l5.329,2.872l2.666-1.656l-6.313-3.656
			h-7.492C252.015,11.083,251.994,12.403,254.057,13.523z"/>
		<path fill="#00B1EB" stroke="#000000" stroke-width="0.2332" d="M124.339,13.523h3.768l5.328,2.872l2.667-1.656l-6.313-3.656
			h-7.491C122.298,11.083,122.275,12.403,124.339,13.523z"/>
		<path fill="#00B1EB" stroke="#000000" stroke-width="0.2332" d="M493.439,27.87l-2.275-2.177c0.861-0.226,0.898-0.267,1.307-1.638
			c0,0,0.316-1.467-0.574-1.685c0,0,0.729,2.545-1.18,2.147c-1.748-0.364-1.475-2.203-1.475-2.203s1.184-2.936-1.49-4.33
			c0,0,2.094-0.637,4.379,1.705c0,0,2.08,1.158,2.756-1.778C494.887,17.911,498.859,23.284,493.439,27.87z"/>
		<path fill="#00B1EB" stroke="#000000" stroke-width="0.2332" d="M477.9,22.709c0.82,2.738,1.665,5.308,1.933,6.113
			c0.557,1.679,2.499,1.16,2.499,1.16l-0.566-1.892l3.145,0.613l1.564,5.899c-0.848-1.735-4.871-1.712-4.871-1.712
			c-3.729-0.815-4.511-4.242-4.511-4.242c-1.016-2.75-1.77-4.782-2.342-6.551L477.9,22.709z"/>
		<path fill="#00B1EB" stroke="#000000" stroke-width="0.2332" d="M475.939,26.448l-1.297-0.314c0,0-3.573-0.525-4.663-4.083
			c0,0-0.249-3.901-2.088-4.604l11.061,2.039l0.853,2.89l-6.887-1.227c0,0-0.402,1.916,1.36,2.342l0.67,0.191L475.939,26.448z"/>
		<polygon fill="#00B1EB" stroke="#000000" stroke-width="0.2332" points="479.724,27.204 489.338,29.089 485.883,25.786 
			478.927,24.477 		"/>
		<path fill="#00B1EB" stroke="#000000" stroke-width="0.2332" d="M476.437,18.044c-2.827-6.11,1.744-7.649,1.744-7.649
			s1.536-0.3,1.764,0.551c0,0-2.664-0.7-2.25,1.123c0.379,1.669,2.305,1.411,2.305,1.411s3.077-1.126,4.534,1.429
			c0,0,0.67-2-1.781-4.183c0,0-1.209-1.988,1.865-2.631c0,0-6.251-3.894-11.416,2.74c0,0-1.75,3.234,0.386,6.636L476.437,18.044z"/>
		<path fill="#00B1EB" stroke="#000000" stroke-width="0.2332" d="M476.49,15.901l2.663,2.545l1.638,5.629l3.111,0.631l-1.752-6.849
			l-5.294-5.061C476.856,12.797,475.862,13.714,476.49,15.901z"/>
		<path fill="#00B1EB" stroke="#000000" stroke-width="0.2332" d="M409.781,8.887c0,0-2.183-0.447-3.254,1.211
			c-0.969,1.499-0.501-3.117,3.505-3.843l8.906,0.003l1.304,1.018l-1.883,2.078l-0.769-0.465L409.781,8.887z"/>
		<polygon fill="#00B1EB" stroke="#000000" stroke-width="0.2332" points="455.637,6.257 456.94,7.275 455.059,9.353 454.29,8.888 
			440.668,8.888 439.899,9.353 438.018,7.275 439.321,6.257 		"/>
		<polygon fill="#00B1EB" stroke="#000000" stroke-width="0.2332" points="436.015,13.712 437.318,12.695 435.437,10.616 
			434.668,11.082 422.743,11.082 421.975,10.616 420.093,12.695 421.396,13.712 		"/>
		<path fill="#00B1EB" stroke="#000000" stroke-width="0.2332" d="M471.865,13.712h-12.869l-1.144-0.967l1.881-2.078l0.61,0.415
			h11.818C472.162,11.082,471.379,12.856,471.865,13.712z"/>
		<path fill="#00B1EB" stroke="#000000" stroke-width="0.2332" d="M404.894,13.698h13.852l4.205-4.806h11.578l4.147,4.806h17.661
			l4.155-4.789l8.536-0.038c0,0,2.368-0.128,3.254,1.201c0.991,1.486,0.501-3.103-3.504-3.83l-10.241,0.015l-4.099,4.808h-13.96
			l-4.236-4.808h-14.758l-4.029,4.808h-11.819C405.636,11.065,405.849,11.764,404.894,13.698z"/>
		<path fill="#00B1EB" stroke="#000000" stroke-width="0.2332" d="M463.051,15.358c4.005,0.726,4.494,5.315,3.504,3.83
			c-0.885-1.329-3.254-1.201-3.254-1.201l-54.368,0.015c0,0-2.183-0.447-3.254,1.211c-0.969,1.498-0.501-3.117,3.505-3.844
			L463.051,15.358z"/>
		<path fill="#00B1EB" stroke="#000000" stroke-width="0.2332" d="M494.795,88.951c0,0,0.467,2.084-1.27,3.107
			c-1.568,0.925,3.266,0.478,4.025-3.347l-0.002-7.289l-1.066-1.245l-2.176,1.797l0.486,0.734L494.795,88.951z"/>
		<polygon fill="#00B1EB" stroke="#000000" stroke-width="0.2332" points="497.549,46.379 496.482,45.134 494.307,46.931 
			494.793,47.665 494.793,60.672 494.307,61.406 496.482,63.204 497.549,61.959 		"/>
		<polygon fill="#00B1EB" stroke="#000000" stroke-width="0.2332" points="489.74,65.116 490.807,63.872 492.982,65.668 
			492.496,66.402 492.496,77.789 492.982,78.523 490.807,80.32 489.74,79.075 		"/>
		<polygon fill="#00B1EB" stroke="#000000" stroke-width="0.2332" points="492.65,41.884 492.93,42.467 490.754,44.264 
			489.908,43.171 489.908,28.99 483.988,23.235 483.203,19.937 484.781,20.238 492.65,28.308 		"/>
		<path fill="#00B1EB" stroke="#000000" stroke-width="0.2332" d="M489.756,93.517v-11.91l5.033-4.015V66.536l-5.033-3.96V45.71
			l5.016-3.968l0.039-8.151c0,0,0.133-2.261-1.258-3.107c-1.557-0.946,3.25-0.478,4.01,3.346l-0.014,9.779l-5.035,3.914v13.33
			l5.035,4.046v14.092l-5.035,3.848v9.969C492.514,92.807,491.781,92.605,489.756,93.517z"/>
		<path fill="#00B1EB" stroke="#000000" stroke-width="0.2332" d="M487.699,38.793c-0.762-3.825-5.566-4.292-4.01-3.347
			c1.391,0.846,1.256,3.107,1.256,3.107L484.93,90.47c0,0,0.469,2.084-1.268,3.107c-1.57,0.925,3.264,0.478,4.025-3.346
			L487.699,38.793z"/>
		<path fill="#00B1EB" stroke="#000000" stroke-width="0.2332" d="M492.967,242.039v-3.076c0.777,0.422,0.834,0.418,2.137-0.277
			c0,0,1.309-0.825,0.84-1.58c0,0-1.367,2.293-2.422,0.724c-0.967-1.437,0.586-2.554,0.586-2.554s3.01-1.279,2.15-4.07
			c0,0,1.953,0.963,1.836,4.161c0,0,0.615,2.223,3.268,0.602C501.361,235.969,500.193,242.451,492.967,242.039z"/>
		<polygon fill="#00B1EB" stroke="#000000" stroke-width="0.2332" points="497.441,325.493 496.377,326.738 494.199,324.941 
			494.688,324.207 494.688,311.199 494.199,310.466 496.377,308.668 497.441,309.913 		"/>
		<path fill="#00B1EB" stroke="#000000" stroke-width="0.2332" d="M494.688,246.662c0,0,0.469-2.084-1.268-3.107
			c-1.568-0.925,3.264-0.478,4.025,3.346l-0.004,8.505l-1.064,1.245l-2.178-1.797l0.488-0.734V246.662z"/>
		<polygon fill="#00B1EB" stroke="#000000" stroke-width="0.2332" points="497.441,290.45 496.377,291.694 494.199,289.897 
			494.688,289.164 494.688,276.156 494.199,275.422 496.377,273.625 497.441,274.87 		"/>
		<path fill="#00B1EB" stroke="#000000" stroke-width="0.2332" d="M492.967,119.488v-3.077c0.777,0.422,0.834,0.418,2.137-0.277
			c0,0,1.309-0.825,0.84-1.58c0,0-1.367,2.293-2.422,0.724c-0.967-1.437,0.586-2.553,0.586-2.553s3.01-1.279,2.15-4.07
			c0,0,1.953,0.963,1.836,4.161c0,0,0.615,2.223,3.268,0.603C501.361,113.418,500.193,119.9,492.967,119.488z"/>
		<polygon fill="#00B1EB" stroke="#000000" stroke-width="0.2332" points="497.441,202.943 496.377,204.187 494.199,202.39 
			494.688,201.656 494.688,188.649 494.199,187.915 496.377,186.118 497.441,187.363 		"/>
		<path fill="#00B1EB" stroke="#000000" stroke-width="0.2332" d="M494.688,124.112c0,0,0.469-2.085-1.268-3.107
			c-1.568-0.925,3.264-0.478,4.025,3.346l-0.004,8.505l-1.064,1.244l-2.178-1.797l0.488-0.734V124.112z"/>
		<polygon fill="#00B1EB" stroke="#000000" stroke-width="0.2332" points="497.441,167.899 496.377,169.144 494.199,167.347 
			494.688,166.613 494.688,153.605 494.199,152.872 496.377,151.075 497.441,152.319 		"/>
		<path fill="#00B1EB" stroke="#000000" stroke-width="0.2332" d="M485.791,227.901c-1.447,2.491-2.75,4.879-3.156,5.629
			c-0.85,1.563,0.908,2.506,0.908,2.506l1-1.72l1.771,2.556l-3.258,5.229c0.684-1.799-2.182-4.499-2.182-4.499
			c-2.034-3.093-0.051-6.045-0.051-6.045c1.318-2.631,2.287-4.577,3.193-6.215L485.791,227.901z"/>
		<path fill="#00B1EB" stroke="#000000" stroke-width="0.2332" d="M481.637,229.222l-0.684-1.097c0,0-2.141-2.783-0.279-6.036
			c0,0,2.713-2.928,1.932-4.667l6.316,8.907l-1.537,2.62l-3.963-5.516c0,0-1.703,1.084-0.771,2.575l0.332,0.588L481.637,229.222z"/>
		<polygon fill="#00B1EB" stroke="#000000" stroke-width="0.2332" points="483.754,232.312 489.162,240.133 489.162,235.465 
			485.209,229.844 		"/>
		<polygon fill="#00B1EB" stroke="#000000" stroke-width="0.2332" points="489.635,271.713 490.701,272.958 492.877,271.16 
			492.389,270.427 492.389,259.04 492.877,258.306 490.701,256.509 489.635,257.753 		"/>
		<path fill="#00B1EB" stroke="#000000" stroke-width="0.2332" d="M488.209,223.613c2.521-6.231,6.895-4.235,6.895-4.235
			s1.309,0.824,0.84,1.58c0,0-1.367-2.293-2.422-0.724c-0.967,1.437,0.586,2.554,0.586,2.554s3.01,1.279,2.15,4.07
			c0,0,1.953-0.963,1.836-4.161c0,0,0.615-2.223,3.268-0.602c0,0-1.541-6.974-10.105-5.766c0,0-3.631,1.107-4.639,4.956
			L488.209,223.613z"/>
		<path fill="#00B1EB" stroke="#000000" stroke-width="0.2332" d="M489.795,338.518v-9.868l1.516-1.168l2.283,1.544l-1.045,0.911
			l0.002,7.67C492.551,337.606,490.293,337.303,489.795,338.518z"/>
		<polygon fill="#00B1EB" stroke="#000000" stroke-width="0.2332" points="489.635,307.516 490.701,308.76 492.877,306.963 
			492.389,306.229 492.389,294.944 492.877,294.21 490.701,292.413 489.635,293.657 		"/>
		<path fill="#00B1EB" stroke="#000000" stroke-width="0.2332" d="M494.703,333.622c0,0,0.135,2.262-1.256,3.107
			c-1.557,0.946,3.248,0.479,4.01-3.346v-5.386l-5.051-3.948v-12.473l5.029-4.254l0.006-14.103l-5.035-3.711v-13.533l5.035-4.046
			v-14.092l-5.035-3.847v-23.086l-0.91-1.266l-1.846,2.886v22.697l5.033,4.015v11.056l-5.033,3.961v16.865l5.014,3.968v10.921
			l-5.014,4.102v15.424l5.053,3.559V333.622z"/>
		<path fill="#00B1EB" stroke="#000000" stroke-width="0.2332" d="M487.91,334.294c-0.76,3.824-5.564,4.292-4.01,3.346
			c1.391-0.845,1.258-3.107,1.258-3.107l-0.016-86.858c0,0,0.467-2.084-1.268-3.107c-1.57-0.925,3.264-0.478,4.023,3.346
			L487.91,334.294z"/>
		<path fill="#00B1EB" stroke="#000000" stroke-width="0.2332" d="M485.791,105.351c-1.447,2.491-2.75,4.879-3.156,5.629
			c-0.85,1.563,0.908,2.505,0.908,2.505l1-1.72l1.771,2.557l-3.258,5.229c0.684-1.799-2.182-4.499-2.182-4.499
			c-2.034-3.093-0.051-6.044-0.051-6.044c1.318-2.632,2.287-4.578,3.193-6.215L485.791,105.351z"/>
		<path fill="#00B1EB" stroke="#000000" stroke-width="0.2332" d="M481.637,106.672l-0.684-1.097c0,0-2.141-2.783-0.279-6.036
			c0,0,2.713-2.928,1.932-4.667l6.316,8.907l-1.537,2.62l-3.963-5.515c0,0-1.703,1.084-0.771,2.575l0.332,0.588L481.637,106.672z"/>
		<polygon fill="#00B1EB" stroke="#000000" stroke-width="0.2332" points="483.754,109.761 489.162,117.583 489.162,112.914 
			485.209,107.293 		"/>
		<polygon fill="#00B1EB" stroke="#000000" stroke-width="0.2332" points="489.635,149.162 490.701,150.407 492.877,148.61 
			492.389,147.876 492.389,136.489 492.877,135.755 490.701,133.958 489.635,135.203 		"/>
		<path fill="#00B1EB" stroke="#000000" stroke-width="0.2332" d="M488.209,101.062c2.521-6.231,6.895-4.235,6.895-4.235
			s1.309,0.825,0.84,1.58c0,0-1.367-2.293-2.422-0.724c-0.967,1.437,0.586,2.553,0.586,2.553s3.01,1.279,2.15,4.07
			c0,0,1.953-0.963,1.836-4.161c0,0,0.615-2.223,3.268-0.603c0,0-1.541-6.974-10.105-5.766c0,0-3.631,1.107-4.639,4.956
			L488.209,101.062z"/>
		<path fill="#00B1EB" stroke="#000000" stroke-width="0.2332" d="M489.795,216.112v-10.317l1.516-1.168l2.283,1.544l-1.045,0.911
			l0.004,8.518l0,0C492.553,215.6,491.539,215.195,489.795,216.112z"/>
		<polygon fill="#00B1EB" stroke="#000000" stroke-width="0.2332" points="489.635,184.965 490.701,186.209 492.877,184.413 
			492.389,183.679 492.389,172.393 492.877,171.659 490.701,169.862 489.635,171.107 		"/>
		<path fill="#00B1EB" stroke="#000000" stroke-width="0.2332" d="M494.703,211.679c0,0,0.135,2.262-1.256,3.107
			c-1.557,0.946,3.248,0.478,4.01-3.347v-5.993l-5.051-3.949v-12.473l5.029-4.254l0.006-14.103l-5.035-3.711v-13.533l5.035-4.046
			v-14.092l-5.035-3.847v-23.085l-0.91-1.266l-1.846,2.887v22.696l5.033,4.015v11.056l-5.033,3.961v16.864l5.014,3.968v10.922
			l-5.014,4.102v15.424l5.053,3.559V211.679z"/>
		<path fill="#00B1EB" stroke="#000000" stroke-width="0.2332" d="M487.91,213.06c-0.76,3.824-5.564,4.292-4.01,3.347
			c1.391-0.846,1.258-3.107,1.258-3.107l-0.016-89.188c0,0,0.467-2.085-1.268-3.107c-1.57-0.925,3.264-0.478,4.023,3.346
			L487.91,213.06z"/>
		<path fill="#00B1EB" stroke="#000000" stroke-width="0.2332" d="M489.834,222.133v3.597l-3.008,5.088l1.732,2.547l3.83-6.029
			v-7.152C492.389,220.184,491.006,220.162,489.834,222.133z"/>
		<path fill="#00B1EB" stroke="#000000" stroke-width="0.2332" d="M489.834,99.683v3.598l-3.008,5.088l1.732,2.546l3.83-6.028
			v-7.153C492.389,97.734,491.006,97.712,489.834,99.683z"/>
		<path fill="#00B1EB" stroke="#000000" stroke-width="0.2332" d="M275.349,691.824l-2.877,0.034
			c0.122,0.791-0.09,1.095-0.337,1.554c0,0-0.691,1.344-1.535,0.995c0,0,2.209-1.584,0.446-2.387
			c-1.615-0.734-2.579,0.879-2.579,0.879s-0.948,3.012-3.957,2.55c0,0,1.248,1.729,4.555,1.214c0,0,2.388,0.303,1.038,3.019
			C270.103,699.682,275.988,697.409,275.349,691.824z"/>
		<polygon fill="#00B1EB" stroke="#000000" stroke-width="0.2332" points="362.353,696.1 363.656,695.082 361.774,693.004 
			361.006,693.47 347.384,693.47 346.615,693.004 344.733,695.082 346.037,696.1 		"/>
		<path fill="#00B1EB" stroke="#000000" stroke-width="0.2332" d="M279.799,693.47c0,0-2.184,0.446-3.254-1.211
			c-0.969-1.498-0.501,3.118,3.504,3.844l8.906-0.003l1.304-1.018l-1.882-2.078l-0.769,0.466H279.799z"/>
		<path fill="#00B1EB" stroke="#000000" stroke-width="0.2332" d="M377.961,691.826h3.222c-0.442,0.742-0.438,0.797,0.291,2.04
			c0,0,0.863,1.251,1.654,0.804c0,0-2.401-1.307-0.758-2.314c1.504-0.923,2.674,0.561,2.674,0.561s1.339,2.874,4.262,2.053
			c0,0-1.009,1.865-4.357,1.754c0,0-2.328,0.587-0.631,3.119C384.317,699.842,377.529,698.728,377.961,691.826z"/>
		<polygon fill="#00B1EB" stroke="#000000" stroke-width="0.2332" points="325.654,696.1 326.958,695.082 325.075,693.004 
			324.308,693.47 310.686,693.47 309.917,693.004 308.035,695.082 309.338,696.1 		"/>
		<path fill="#00B1EB" stroke="#000000" stroke-width="0.2332" d="M145.133,691.826h-3.222c0.441,0.742,0.438,0.797-0.291,2.04
			c0,0-0.863,1.251-1.654,0.804c0,0,2.401-1.307,0.758-2.314c-1.505-0.923-2.674,0.561-2.674,0.561s-1.339,2.874-4.263,2.053
			c0,0,1.009,1.865,4.358,1.754c0,0,2.327,0.587,0.631,3.119C138.776,699.842,145.564,698.728,145.133,691.826z"/>
		<polygon fill="#00B1EB" stroke="#000000" stroke-width="0.2332" points="232.528,696.1 233.832,695.082 231.95,693.004 
			231.182,693.47 217.56,693.47 216.791,693.004 214.909,695.082 216.213,696.1 		"/>
		<path fill="#00B1EB" stroke="#000000" stroke-width="0.2332" d="M149.975,693.47c0,0-2.183,0.446-3.254-1.211
			c-0.969-1.498-0.501,3.118,3.504,3.844l8.907-0.003l1.303-1.018l-1.882-2.078l-0.769,0.466H149.975z"/>
		<polygon fill="#00B1EB" stroke="#000000" stroke-width="0.2332" points="195.83,696.1 197.134,695.082 195.252,693.004 
			194.483,693.47 180.861,693.47 180.093,693.004 178.211,695.082 179.514,696.1 		"/>
		<path fill="#00B1EB" stroke="#000000" stroke-width="0.2332" d="M260.151,684.975c2.608-1.382,5.109-2.626,5.895-3.016
			c1.638-0.81,2.624,0.869,2.624,0.869l-1.802,0.954l2.678,1.692l5.476-3.112c-1.884,0.653-4.711-2.082-4.711-2.082
			c-3.238-1.942-6.33-0.048-6.33-0.048c-2.756,1.257-4.794,2.184-6.509,3.047L260.151,684.975z"/>
		<path fill="#00B1EB" stroke="#000000" stroke-width="0.2332" d="M261.534,681.008l-1.147-0.654c0,0-2.915-2.043-6.321-0.266
			c0,0-3.066,2.59-4.886,1.844l9.327,6.031l2.743-1.467l-5.775-3.784c0,0,1.136-1.626,2.696-0.737l0.616,0.317L261.534,681.008z"/>
		<polygon fill="#00B1EB" stroke="#000000" stroke-width="0.2332" points="264.77,683.029 272.961,688.192 268.071,688.192 
			262.186,684.419 		"/>
		<polygon fill="#00B1EB" stroke="#000000" stroke-width="0.2332" points="306.032,688.646 307.336,689.662 305.453,691.741 
			304.685,691.274 292.76,691.274 291.991,691.741 290.109,689.662 291.413,688.646 		"/>
		<path fill="#00B1EB" stroke="#000000" stroke-width="0.2332" d="M255.66,687.282c-6.526,2.408-4.436,6.584-4.436,6.584
			s0.863,1.251,1.656,0.804c0,0-2.402-1.307-0.76-2.314c1.505-0.923,2.674,0.561,2.674,0.561s1.34,2.874,4.263,2.053
			c0,0-1.009,1.865-4.357,1.754c0,0-2.328,0.587-0.631,3.119c0,0-7.304-1.472-6.039-9.648c0,0,1.16-3.468,5.19-4.43L255.66,687.282z
			"/>
		<polygon fill="#00B1EB" stroke="#000000" stroke-width="0.2332" points="366.688,691.427 365.733,692.424 364.117,690.245 
			365.341,688.797 387.229,688.797 390.553,690.844 389.874,691.432 389.874,691.432 		"/>
		<polygon fill="#00B1EB" stroke="#000000" stroke-width="0.2332" points="343.526,688.646 344.829,689.662 342.947,691.741 
			342.179,691.274 330.36,691.274 329.592,691.741 327.71,689.662 329.014,688.646 		"/>
		<path fill="#00B1EB" stroke="#000000" stroke-width="0.2332" d="M373.198,693.485c0,0,2.368,0.127,3.254-1.2
			c0.991-1.486,0.501,3.102-3.504,3.828h-7.974l-4.135-4.821h-13.062l-4.455,4.803l-14.769,0.005l-3.887-4.808h-14.172l-4.237,4.808
			h-14.757l-4.029-4.808h-24.176l-1.326-0.869l3.023-1.764h23.769l4.204,4.807h11.578l4.147-4.807h17.661l4.155,4.789h11.438
			l4.296-4.789h16.152l3.728,4.826H373.198z"/>
		<path fill="#00B1EB" stroke="#000000" stroke-width="0.2332" d="M392.767,684.975c-2.608-1.382-5.109-2.626-5.896-3.016
			c-1.637-0.81-2.624,0.869-2.624,0.869l1.802,0.954l-2.678,1.692l-5.476-3.112c1.885,0.653,4.711-2.082,4.711-2.082
			c3.239-1.942,6.331-0.048,6.331-0.048c2.755,1.257,4.793,2.184,6.508,3.047L392.767,684.975z"/>
		<path fill="#00B1EB" stroke="#000000" stroke-width="0.2332" d="M399.231,688.834h-4.086l-4.639-2.518l-2.667,1.656l5.624,3.302
			h7.809C401.272,691.274,401.295,689.954,399.231,688.834z"/>
		<path fill="#00B1EB" stroke="#000000" stroke-width="0.2332" d="M391.383,681.008l1.148-0.654c0,0,2.914-2.043,6.32-0.266
			c0,0,3.066,2.59,4.888,1.844l-9.328,6.031l-2.743-1.467l5.775-3.784c0,0-1.135-1.626-2.696-0.737l-0.615,0.317L391.383,681.008z"
			/>
		<polygon fill="#00B1EB" stroke="#000000" stroke-width="0.2332" points="388.147,683.029 379.957,688.192 384.846,688.192 
			390.731,684.419 		"/>
		<path fill="#00B1EB" stroke="#000000" stroke-width="0.2332" d="M397.258,687.282c6.525,2.408,4.435,6.584,4.435,6.584
			s-0.863,1.251-1.654,0.804c0,0,2.401-1.307,0.758-2.314c-1.505-0.923-2.674,0.561-2.674,0.561s-1.34,2.874-4.263,2.053
			c0,0,1.009,1.865,4.358,1.754c0,0,2.327,0.587,0.631,3.119c0,0,7.303-1.472,6.038-9.648c0,0-1.159-3.468-5.189-4.43
			L397.258,687.282z"/>
		<path fill="#00B1EB" stroke="#000000" stroke-width="0.2332" d="M372.948,686.999c4.005-0.728,4.495-5.315,3.504-3.829
			c-0.886,1.328-3.254,1.2-3.254,1.2l-93.399-0.016c0,0-2.184,0.446-3.254-1.21c-0.969-1.499-0.501,3.116,3.504,3.843
			L372.948,686.999z"/>
		<path fill="#00B1EB" stroke="#000000" stroke-width="0.2332" d="M130.327,684.975c2.608-1.382,5.109-2.626,5.895-3.016
			c1.638-0.81,2.625,0.869,2.625,0.869l-1.802,0.954l2.677,1.692l5.476-3.112c-1.884,0.653-4.711-2.082-4.711-2.082
			c-3.238-1.942-6.33-0.048-6.33-0.048c-2.756,1.257-4.794,2.184-6.509,3.047L130.327,684.975z"/>
		<path fill="#00B1EB" stroke="#000000" stroke-width="0.2332" d="M131.711,681.008l-1.148-0.654c0,0-2.915-2.043-6.321-0.266
			c0,0-3.065,2.59-4.887,1.844l9.327,6.031l2.744-1.467l-5.776-3.784c0,0,1.136-1.626,2.696-0.737l0.616,0.317L131.711,681.008z"/>
		<polygon fill="#00B1EB" stroke="#000000" stroke-width="0.2332" points="134.946,683.029 143.137,688.192 138.248,688.192 
			132.362,684.419 		"/>
		<polygon fill="#00B1EB" stroke="#000000" stroke-width="0.2332" points="176.208,688.646 177.512,689.662 175.63,691.741 
			174.86,691.274 162.937,691.274 162.168,691.741 160.286,689.662 161.589,688.646 		"/>
		<path fill="#00B1EB" stroke="#000000" stroke-width="0.2332" d="M125.836,687.282c-6.525,2.408-4.435,6.584-4.435,6.584
			s0.863,1.251,1.654,0.804c0,0-2.401-1.307-0.759-2.314c1.505-0.923,2.675,0.561,2.675,0.561s1.339,2.874,4.262,2.053
			c0,0-1.009,1.865-4.357,1.754c0,0-2.328,0.587-0.631,3.119c0,0-7.304-1.472-6.038-9.648c0,0,1.159-3.468,5.189-4.43
			L125.836,687.282z"/>
		<path fill="#00B1EB" stroke="#000000" stroke-width="0.2332" d="M247.488,688.797h-11.971l-1.224,1.448l1.616,2.179l0.955-0.997
			l10.086,0.005l0,0C246.951,691.432,246.527,690.462,247.488,688.797z"/>
		<polygon fill="#00B1EB" stroke="#000000" stroke-width="0.2332" points="213.702,688.646 215.006,689.662 213.124,691.741 
			212.355,691.274 200.536,691.274 199.768,691.741 197.886,689.662 199.189,688.646 		"/>
		<path fill="#00B1EB" stroke="#000000" stroke-width="0.2332" d="M243.375,693.485c0,0,2.369,0.127,3.254-1.2
			c0.99-1.486,0.5,3.102-3.504,3.828h-7.974l-4.135-4.821h-13.062l-4.455,4.803L198.73,696.1l-3.886-4.808h-14.173l-4.237,4.808
			h-14.757l-4.029-4.808h-24.176l-1.326-0.869l3.023-1.764h23.769l4.204,4.807h11.578l4.148-4.807h17.661l4.155,4.789h11.438
			l4.295-4.789h16.152l3.728,4.826H243.375z"/>
		<path fill="#00B1EB" stroke="#000000" stroke-width="0.2332" d="M243.972,686.999c4.006-0.728,4.496-5.315,3.504-3.829
			c-0.885,1.328-3.254,1.2-3.254,1.2l-93.399-0.016c0,0-2.184,0.446-3.254-1.21c-0.969-1.499-0.501,3.116,3.504,3.843
			L243.972,686.999z"/>
		<path fill="#00B1EB" stroke="#000000" stroke-width="0.2332" d="M254.11,688.834h3.768l5.328-2.872l2.667,1.655l-6.313,3.657
			h-7.49C252.07,691.274,252.046,689.954,254.11,688.834z"/>
		<path fill="#00B1EB" stroke="#000000" stroke-width="0.2332" d="M124.392,688.834h3.768l5.329-2.872l2.667,1.655l-6.313,3.657
			h-7.49C122.352,691.274,122.328,689.954,124.392,688.834z"/>
		<path fill="#00B1EB" stroke="#000000" stroke-width="0.2332" d="M493.494,674.487l-2.277,2.177c0.861,0.226,0.9,0.268,1.307,1.639
			c0,0,0.316,1.467-0.574,1.685c0,0,0.73-2.545-1.178-2.147c-1.748,0.364-1.477,2.202-1.477,2.202s1.184,2.937-1.49,4.331
			c0,0,2.096,0.637,4.379-1.705c0,0,2.08-1.157,2.758,1.778C494.941,684.446,498.912,679.073,493.494,674.487z"/>
		<path fill="#00B1EB" stroke="#000000" stroke-width="0.2332" d="M477.953,679.646c0.82-2.738,1.666-5.307,1.933-6.111
			c0.557-1.679,2.499-1.16,2.499-1.16l-0.566,1.891l3.145-0.612l1.564-5.897c-0.846,1.734-4.871,1.71-4.871,1.71
			c-3.729,0.816-4.51,4.243-4.51,4.243c-1.017,2.75-1.771,4.782-2.342,6.552L477.953,679.646z"/>
		<path fill="#00B1EB" stroke="#000000" stroke-width="0.2332" d="M475.992,675.909l-1.296,0.314c0,0-3.573,0.524-4.664,4.081
			c0,0-0.248,3.902-2.088,4.606l11.061-2.04l0.853-2.89l-6.887,1.227c0,0-0.401-1.916,1.36-2.342l0.671-0.192L475.992,675.909z"/>
		<polygon fill="#00B1EB" stroke="#000000" stroke-width="0.2332" points="479.777,675.153 489.391,673.269 485.936,676.57 
			478.98,677.881 		"/>
		<path fill="#00B1EB" stroke="#000000" stroke-width="0.2332" d="M476.49,684.313c-2.828,6.111,1.744,7.649,1.744,7.649
			s1.536,0.3,1.764-0.55c0,0-2.665,0.699-2.251-1.123c0.38-1.669,2.306-1.411,2.306-1.411s3.076,1.126,4.533-1.429
			c0,0,0.67,2-1.781,4.184c0,0-1.209,1.987,1.867,2.63c0,0-6.253,3.895-11.417-2.738c0,0-1.75-3.233,0.386-6.638L476.49,684.313z"/>
		<path fill="#00B1EB" stroke="#000000" stroke-width="0.2332" d="M476.544,686.457l2.663-2.546l1.639-5.629l3.111-0.633
			l-1.754,6.85l-5.294,5.062C476.909,689.561,475.915,688.642,476.544,686.457z"/>
		<path fill="#00B1EB" stroke="#000000" stroke-width="0.2332" d="M409.835,693.47c0,0-2.184,0.446-3.255-1.211
			c-0.968-1.498-0.5,3.118,3.505,3.844l8.906-0.003l1.304-1.018l-1.882-2.078l-0.769,0.466H409.835z"/>
		<polygon fill="#00B1EB" stroke="#000000" stroke-width="0.2332" points="455.69,696.1 456.993,695.082 455.111,693.004 
			454.343,693.47 440.722,693.47 439.953,693.004 438.071,695.082 439.374,696.1 		"/>
		<polygon fill="#00B1EB" stroke="#000000" stroke-width="0.2332" points="436.068,688.646 437.372,689.662 435.489,691.741 
			434.721,691.274 422.796,691.274 422.028,691.741 420.146,689.662 421.449,688.646 		"/>
		<path fill="#00B1EB" stroke="#000000" stroke-width="0.2332" d="M471.918,688.646H459.05l-1.145,0.966l1.882,2.079l0.609-0.416
			h11.818C472.215,691.274,471.432,689.5,471.918,688.646z"/>
		<path fill="#00B1EB" stroke="#000000" stroke-width="0.2332" d="M404.947,688.659h13.852l4.204,4.807h11.578l4.147-4.807h17.662
			l4.154,4.789l8.536,0.037c0,0,2.369,0.127,3.255-1.2c0.99-1.486,0.5,3.102-3.505,3.828l-10.24-0.014l-4.099-4.808h-13.96
			l-4.237,4.808h-14.757l-4.029-4.808h-11.819C405.689,691.292,405.901,690.593,404.947,688.659z"/>
		<path fill="#00B1EB" stroke="#000000" stroke-width="0.2332" d="M463.315,686.999c4.005-0.728,4.495-5.315,3.505-3.829
			c-0.886,1.328-3.254,1.2-3.254,1.2l-54.368-0.016c0,0-2.183,0.446-3.254-1.21c-0.969-1.499-0.501,3.116,3.504,3.843
			L463.315,686.999z"/>
		<path fill="#00B1EB" stroke="#000000" stroke-width="0.2332" d="M494.848,613.406c0,0,0.467-2.085-1.268-3.107
			c-1.57-0.925,3.264-0.479,4.023,3.347l-0.002,7.289l-1.066,1.245l-2.176-1.797l0.488-0.734V613.406z"/>
		<polygon fill="#00B1EB" stroke="#000000" stroke-width="0.2332" points="497.602,655.979 496.535,657.223 494.359,655.426 
			494.848,654.691 494.848,641.685 494.359,640.95 496.535,639.153 497.602,640.398 		"/>
		<polygon fill="#00B1EB" stroke="#000000" stroke-width="0.2332" points="489.795,637.241 490.859,638.486 493.037,636.688 
			492.549,635.954 492.549,624.568 493.037,623.834 490.859,622.037 489.795,623.282 		"/>
		<polygon fill="#00B1EB" stroke="#000000" stroke-width="0.2332" points="492.703,660.473 492.982,659.891 490.807,658.094 
			489.961,659.187 489.961,673.367 484.041,679.121 483.258,682.42 484.834,682.119 492.703,674.049 		"/>
		<path fill="#00B1EB" stroke="#000000" stroke-width="0.2332" d="M489.809,608.841v11.909l5.033,4.016v11.056l-5.033,3.961v16.864
			l5.016,3.968l0.039,8.151c0,0,0.135,2.262-1.258,3.107c-1.555,0.945,3.25,0.478,4.01-3.347l-0.014-9.778l-5.035-3.914v-13.331
			l5.035-4.045v-14.092l-5.035-3.847v-9.971C492.566,609.549,491.834,609.752,489.809,608.841z"/>
		<path fill="#00B1EB" stroke="#000000" stroke-width="0.2332" d="M488.07,663.867c-0.762,3.824-5.566,4.293-4.01,3.347
			c1.391-0.846,1.256-3.107,1.256-3.107l-0.016-51.916c0,0,0.469-2.084-1.268-3.107c-1.568-0.925,3.264-0.478,4.025,3.347
			L488.07,663.867z"/>
		<path fill="#00B1EB" stroke="#000000" stroke-width="0.2332" d="M493.02,460.318v3.076c0.777-0.422,0.834-0.417,2.137,0.277
			c0,0,1.311,0.825,0.842,1.58c0,0-1.367-2.293-2.424-0.724c-0.967,1.437,0.586,2.554,0.586,2.554s3.01,1.278,2.15,4.07
			c0,0,1.953-0.964,1.836-4.161c0,0,0.615-2.224,3.268-0.603C501.414,466.389,500.248,459.906,493.02,460.318z"/>
		<polygon fill="#00B1EB" stroke="#000000" stroke-width="0.2332" points="497.494,376.863 496.43,375.62 494.254,377.416 
			494.74,378.15 494.74,391.157 494.254,391.892 496.43,393.688 497.494,392.444 		"/>
		<path fill="#00B1EB" stroke="#000000" stroke-width="0.2332" d="M494.742,455.695c0,0,0.467,2.084-1.27,3.107
			c-1.568,0.925,3.266,0.478,4.025-3.348l-0.004-8.504l-1.064-1.245l-2.176,1.797l0.486,0.734L494.742,455.695z"/>
		<path fill="#00B1EB" stroke="#000000" stroke-width="0.2332" d="M493.02,364.087v-3.076c0.777,0.422,0.834,0.418,2.137-0.278
			c0,0,1.311-0.824,0.842-1.579c0,0-1.367,2.293-2.424,0.724c-0.967-1.437,0.586-2.554,0.586-2.554s3.01-1.278,2.15-4.07
			c0,0,1.953,0.964,1.836,4.162c0,0,0.615,2.223,3.268,0.603C501.414,358.018,500.248,364.499,493.02,364.087z"/>
		<polygon fill="#00B1EB" stroke="#000000" stroke-width="0.2332" points="497.494,411.907 496.43,410.662 494.254,412.46 
			494.74,413.194 494.74,426.201 494.254,426.936 496.43,428.732 497.494,427.487 		"/>
		<path fill="#00B1EB" stroke="#000000" stroke-width="0.2332" d="M493.02,582.869v3.076c0.777-0.422,0.834-0.418,2.137,0.277
			c0,0,1.311,0.825,0.842,1.58c0,0-1.367-2.293-2.424-0.725c-0.967,1.438,0.586,2.555,0.586,2.555s3.01,1.278,2.15,4.069
			c0,0,1.953-0.964,1.836-4.161c0,0,0.615-2.223,3.268-0.603C501.414,588.938,500.248,582.457,493.02,582.869z"/>
		<polygon fill="#00B1EB" stroke="#000000" stroke-width="0.2332" points="497.494,499.415 496.43,498.17 494.254,499.967 
			494.74,500.7 494.74,513.708 494.254,514.441 496.43,516.239 497.494,514.995 		"/>
		<path fill="#00B1EB" stroke="#000000" stroke-width="0.2332" d="M494.742,578.245c0,0,0.467,2.084-1.27,3.107
			c-1.568,0.925,3.266,0.478,4.025-3.346l-0.004-8.505l-1.064-1.245l-2.176,1.797l0.486,0.733L494.742,578.245z"/>
		<polygon fill="#00B1EB" stroke="#000000" stroke-width="0.2332" points="497.494,534.458 496.43,533.213 494.254,535.011 
			494.74,535.744 494.74,548.752 494.254,549.485 496.43,551.282 497.494,550.037 		"/>
		<path fill="#00B1EB" stroke="#000000" stroke-width="0.2332" d="M485.844,474.456c-1.445-2.49-2.75-4.879-3.156-5.629
			c-0.848-1.563,0.908-2.507,0.908-2.507l1,1.721l1.771-2.557l-3.258-5.229c0.684,1.799-2.182,4.498-2.182,4.498
			c-2.033,3.094-0.049,6.045-0.049,6.045c1.316,2.632,2.285,4.578,3.191,6.216L485.844,474.456z"/>
		<path fill="#00B1EB" stroke="#000000" stroke-width="0.2332" d="M481.689,473.135l-0.684,1.097c0,0-2.141,2.783-0.279,6.035
			c0,0,2.713,2.929,1.932,4.667l6.316-8.906l-1.535-2.62l-3.965,5.516c0,0-1.703-1.085-0.771-2.575l0.332-0.588L481.689,473.135z"/>
		<polygon fill="#00B1EB" stroke="#000000" stroke-width="0.2332" points="483.809,470.045 489.215,462.225 489.215,466.893 
			485.262,472.514 		"/>
		<polygon fill="#00B1EB" stroke="#000000" stroke-width="0.2332" points="489.688,430.645 490.754,429.399 492.93,431.197 
			492.443,431.931 492.443,443.317 492.93,444.052 490.754,445.849 489.688,444.604 		"/>
		<path fill="#00B1EB" stroke="#000000" stroke-width="0.2332" d="M488.262,478.745c2.521,6.23,6.895,4.234,6.895,4.234
			s1.311-0.825,0.842-1.58c0,0-1.367,2.294-2.424,0.725c-0.967-1.438,0.586-2.554,0.586-2.554s3.01-1.279,2.15-4.07
			c0,0,1.953,0.963,1.836,4.161c0,0,0.615,2.224,3.268,0.603c0,0-1.541,6.974-10.104,5.766c0,0-3.633-1.106-4.639-4.955
			L488.262,478.745z"/>
		<polygon fill="#00B1EB" stroke="#000000" stroke-width="0.2332" points="492.602,372.42 493.646,373.332 491.363,374.875 
			489.848,373.707 489.848,354.528 491.99,351.354 492.605,352.002 		"/>
		<polygon fill="#00B1EB" stroke="#000000" stroke-width="0.2332" points="489.688,394.841 490.754,393.598 492.93,395.395 
			492.443,396.128 492.443,407.413 492.93,408.147 490.754,409.944 489.688,408.699 		"/>
		<path fill="#00B1EB" stroke="#000000" stroke-width="0.2332" d="M494.758,368.736c0,0,0.133-2.262-1.258-3.108
			c-1.557-0.945,3.25-0.478,4.01,3.347v5.386l-5.049,3.948v12.474l5.029,4.253l0.004,14.104l-5.033,3.71v13.533l5.033,4.047v14.091
			l-5.033,3.847v23.086l-0.91,1.267l-1.848-2.887v-22.696l5.033-4.016v-11.056l-5.033-3.961v-16.864l5.016-3.968V396.35
			l-5.016-4.102v-15.424l5.055-3.559V368.736z"/>
		<path fill="#00B1EB" stroke="#000000" stroke-width="0.2332" d="M485.844,349.949c-1.445,2.492-2.75,4.879-3.156,5.629
			c-0.848,1.563,0.908,2.506,0.908,2.506l1-1.72l1.771,2.556l-3.258,5.229c0.684-1.8-2.182-4.499-2.182-4.499
			c-2.033-3.093-0.049-6.045-0.049-6.045c1.316-2.631,2.285-4.578,3.191-6.215L485.844,349.949z"/>
		<path fill="#00B1EB" stroke="#000000" stroke-width="0.2332" d="M489.887,343.775v3.901l-2.637,4.431l1.734,2.546l3.457-5.371
			v-7.457C492.441,341.826,491.059,341.804,489.887,343.775z"/>
		<path fill="#00B1EB" stroke="#000000" stroke-width="0.2332" d="M481.689,351.27l-0.684-1.097c0,0-2.141-2.783-0.279-6.036
			c0,0,2.713-2.928,1.932-4.667l6.316,8.907l-1.535,2.62l-3.965-5.515c0,0-1.703,1.084-0.771,2.574l0.332,0.588L481.689,351.27z"/>
		<polygon fill="#00B1EB" stroke="#000000" stroke-width="0.2332" points="483.809,354.359 489.215,362.181 489.215,357.513 
			485.262,351.892 		"/>
		<path fill="#00B1EB" stroke="#000000" stroke-width="0.2332" d="M488.262,345.66c2.521-6.231,6.895-4.235,6.895-4.235
			s1.311,0.824,0.842,1.58c0,0-1.367-2.293-2.424-0.725c-0.967,1.437,0.586,2.554,0.586,2.554s3.01,1.279,2.15,4.07
			c0,0,1.953-0.964,1.836-4.161c0,0,0.615-2.223,3.268-0.603c0,0-1.541-6.974-10.104-5.766c0,0-3.633,1.107-4.639,4.956
			L488.262,345.66z"/>
		<path fill="#00B1EB" stroke="#000000" stroke-width="0.2332" d="M487.965,369.076c-0.762-3.824-5.566-4.292-4.012-3.347
			c1.393,0.846,1.258,3.107,1.258,3.107l-0.016,86.858c0,0,0.469,2.084-1.268,3.107c-1.57,0.925,3.264,0.478,4.025-3.348
			L487.965,369.076z"/>
		<path fill="#00B1EB" stroke="#000000" stroke-width="0.2332" d="M485.844,597.007c-1.445-2.491-2.75-4.879-3.156-5.629
			c-0.848-1.563,0.908-2.507,0.908-2.507l1,1.72l1.771-2.555l-3.258-5.229c0.684,1.8-2.182,4.498-2.182,4.498
			c-2.033,3.094-0.049,6.045-0.049,6.045c1.316,2.632,2.285,4.578,3.191,6.216L485.844,597.007z"/>
		<path fill="#00B1EB" stroke="#000000" stroke-width="0.2332" d="M481.689,595.686l-0.684,1.097c0,0-2.141,2.783-0.279,6.035
			c0,0,2.713,2.928,1.932,4.667l6.316-8.906l-1.535-2.62l-3.965,5.516c0,0-1.703-1.085-0.771-2.575l0.332-0.588L481.689,595.686z"/>
		<polygon fill="#00B1EB" stroke="#000000" stroke-width="0.2332" points="483.809,592.596 489.215,584.774 489.215,589.443 
			485.262,595.063 		"/>
		<polygon fill="#00B1EB" stroke="#000000" stroke-width="0.2332" points="489.688,553.195 490.754,551.95 492.93,553.748 
			492.443,554.481 492.443,565.868 492.93,566.603 490.754,568.399 489.688,567.154 		"/>
		<path fill="#00B1EB" stroke="#000000" stroke-width="0.2332" d="M488.262,601.295c2.521,6.231,6.895,4.234,6.895,4.234
			s1.311-0.824,0.842-1.58c0,0-1.367,2.294-2.424,0.725c-0.967-1.437,0.586-2.554,0.586-2.554s3.01-1.278,2.15-4.069
			c0,0,1.953,0.963,1.836,4.161c0,0,0.615,2.223,3.268,0.603c0,0-1.541,6.974-10.104,5.766c0,0-3.633-1.106-4.639-4.956
			L488.262,601.295z"/>
		<path fill="#00B1EB" stroke="#000000" stroke-width="0.2332" d="M489.848,486.245v10.316l1.516,1.169l2.283-1.544l-1.045-0.912
			l0.004-8.517l0,0C492.605,486.758,491.592,487.162,489.848,486.245z"/>
		<polygon fill="#00B1EB" stroke="#000000" stroke-width="0.2332" points="489.688,517.392 490.754,516.147 492.93,517.944 
			492.443,518.679 492.443,529.964 492.93,530.698 490.754,532.495 489.688,531.25 		"/>
		<path fill="#00B1EB" stroke="#000000" stroke-width="0.2332" d="M494.758,490.679c0,0,0.133-2.262-1.258-3.108
			c-1.557-0.945,3.25-0.477,4.01,3.347v5.994l-5.049,3.948v12.473l5.029,4.254l0.004,14.103l-5.033,3.711v13.533l5.033,4.046v14.092
			l-5.033,3.847v23.086l-0.91,1.266l-1.848-2.886v-22.697l5.033-4.015v-11.056l-5.033-3.961V533.79l5.016-3.968v-10.923
			l-5.016-4.101v-15.425l5.055-3.559V490.679z"/>
		<path fill="#00B1EB" stroke="#000000" stroke-width="0.2332" d="M487.965,489.297c-0.762-3.824-5.566-4.292-4.012-3.347
			c1.393,0.846,1.258,3.107,1.258,3.107l-0.016,89.188c0,0,0.469,2.084-1.268,3.107c-1.57,0.925,3.264,0.478,4.025-3.346
			L487.965,489.297z"/>
		<path fill="#00B1EB" stroke="#000000" stroke-width="0.2332" d="M489.887,480.225v-3.598l-3.008-5.088l1.734-2.547l3.828,6.028
			v7.153C492.441,482.174,491.059,482.195,489.887,480.225z"/>
		<path fill="#00B1EB" stroke="#000000" stroke-width="0.2332" d="M489.887,602.674v-3.598l-3.008-5.089l1.734-2.546l3.828,6.028
			v7.153C492.441,604.623,491.059,604.645,489.887,602.674z"/>
		<path fill="#00B1EB" stroke="#000000" stroke-width="0.2332" d="M112.835,693.47c0,0,2.183,0.446,3.254-1.211
			c0.969-1.498,0.5,3.118-3.505,3.844l-11.876-0.003l-1.304-1.018l1.882-2.078l0.769,0.466H112.835z"/>
		<polygon fill="#00B1EB" stroke="#000000" stroke-width="0.2332" points="55.312,696.1 54.009,695.082 55.891,693.004 
			56.659,693.47 74.735,693.47 75.504,693.004 77.386,695.082 76.082,696.1 		"/>
		<polygon fill="#00B1EB" stroke="#000000" stroke-width="0.2332" points="79.707,688.646 78.403,689.662 80.285,691.741 
			81.054,691.274 96.903,691.274 97.672,691.741 99.554,689.662 98.25,688.646 		"/>
		<path fill="#00B1EB" stroke="#000000" stroke-width="0.2332" d="M32.508,688.646h19.339l1.144,0.966l-1.882,2.079l-0.609-0.416
			H32.211C32.211,691.274,32.994,689.5,32.508,688.646z"/>
		<path fill="#00B1EB" stroke="#000000" stroke-width="0.2332" d="M117.722,688.659H100.9l-4.204,4.807H80.981l-4.147-4.807H54.718
			l-4.155,4.789l-15.006,0.037c0,0-2.369,0.127-3.254-1.2c-0.991-1.486-0.501,3.102,3.504,3.828l16.711-0.014l4.099-4.808H75.03
			l4.237,4.808h18.894l4.029-4.808h14.789C116.979,691.292,116.768,690.593,117.722,688.659z"/>
		<path fill="#00B1EB" stroke="#000000" stroke-width="0.2332" d="M41.216,686.999c-4.005-0.728-4.495-5.315-3.504-3.829
			c0.886,1.328,3.254,1.2,3.254,1.2l72.399-0.016c0,0,2.183,0.446,3.254-1.21c0.969-1.499,0.5,3.116-3.505,3.843L41.216,686.999z"/>
		<polygon fill="#00B1EB" stroke="#000000" stroke-width="0.2332" points="24.205,27.103 14.591,28.988 18.046,25.685 
			25.002,24.375 		"/>
		<path fill="#00B1EB" stroke="#000000" stroke-width="0.2332" d="M10.488,27.768l2.277-2.176c-0.862-0.226-0.899-0.268-1.307-1.639
			c0,0-0.316-1.467,0.575-1.685c0,0-0.73,2.545,1.179,2.147c1.747-0.364,1.475-2.202,1.475-2.202s-1.183-2.936,1.491-4.331
			c0,0-2.095-0.637-4.378,1.706c0,0-2.081,1.157-2.758-1.779C9.042,17.809,5.07,23.182,10.488,27.768z"/>
		<path fill="#00B1EB" stroke="#000000" stroke-width="0.2332" d="M26.028,22.609c-0.858,2.867-1.666,5.308-1.933,6.112
			c-0.557,1.679-2.498,1.159-2.498,1.159l0.566-1.891l-3.146,0.613L17.454,34.5c0.847-1.735,4.872-1.711,4.872-1.711
			c3.729-0.816,4.51-4.243,4.51-4.243c1.016-2.75,1.77-4.782,2.341-6.551L26.028,22.609z"/>
		<path fill="#00B1EB" stroke="#000000" stroke-width="0.2332" d="M27.989,26.346l1.296-0.313c0,0,3.574-0.525,4.664-4.083
			c0,0,0.248-3.901,2.088-4.604l-11.061,2.039l-0.852,2.89l6.887-1.227c0,0,0.401,1.916-1.36,2.342l-0.671,0.192L27.989,26.346z"/>
		<path fill="#00B1EB" stroke="#000000" stroke-width="0.2332" d="M27.704,17.943c2.827-6.11-1.744-7.649-1.744-7.649
			s-1.536-0.3-1.764,0.55c0,0,2.665-0.7,2.25,1.123c-0.379,1.669-2.305,1.411-2.305,1.411s-3.076-1.126-4.533,1.429
			c0,0-0.67-2,1.78-4.183c0,0,1.21-1.988-1.865-2.631c0,0,6.251-3.894,11.416,2.74c0,0,1.749,3.233-0.386,6.636L27.704,17.943z"/>
		<path fill="#00B1EB" stroke="#000000" stroke-width="0.2332" d="M27.438,15.799l-2.663,2.545l-1.638,5.63l-3.111,0.632l1.752-6.85
			l5.293-5.061C27.072,12.696,28.066,13.613,27.438,15.799z"/>
		<path fill="#00B1EB" stroke="#000000" stroke-width="0.2332" d="M9.134,88.85c0,0-0.468,2.084,1.269,3.107
			c1.569,0.925-3.265,0.479-4.025-3.346l0.003-7.29l1.065-1.244l2.177,1.797l-0.488,0.733L9.134,88.85z"/>
		<polygon fill="#00B1EB" stroke="#000000" stroke-width="0.2332" points="6.381,46.277 7.446,45.033 9.624,46.83 9.135,47.564 
			9.135,60.571 9.624,61.305 7.446,63.102 6.381,61.857 		"/>
		<polygon fill="#00B1EB" stroke="#000000" stroke-width="0.2332" points="14.188,65.014 13.122,63.77 10.946,65.567 11.434,66.301 
			11.434,77.688 10.946,78.422 13.122,80.218 14.188,78.974 		"/>
		<polygon fill="#00B1EB" stroke="#000000" stroke-width="0.2332" points="11.279,41.784 10.999,42.366 13.175,44.163 14.021,43.07 
			14.021,28.889 19.94,23.134 20.725,19.835 19.148,20.136 11.279,28.207 		"/>
		<path fill="#00B1EB" stroke="#000000" stroke-width="0.2332" d="M14.172,93.416v-11.91L9.14,77.491V66.435l5.032-3.961V45.609
			l-5.014-3.968L9.119,33.49c0,0-0.134-2.261,1.257-3.107c1.556-0.946-3.249-0.478-4.01,3.346l0.015,9.779l5.035,3.913v13.331
			l-5.035,4.046V78.89l5.035,3.847v9.97C11.416,92.707,12.147,92.504,14.172,93.416z"/>
		<path fill="#00B1EB" stroke="#000000" stroke-width="0.2332" d="M15.912,38.388c0.761-3.824,5.566-4.292,4.01-3.346
			c-1.391,0.845-1.257,3.107-1.257,3.107l0.016,51.916c0,0-0.468,2.084,1.268,3.107c1.569,0.925-3.265,0.479-4.025-3.346
			L15.912,38.388z"/>
		<path fill="#00B1EB" stroke="#000000" stroke-width="0.2332" d="M10.962,241.938v-3.077c-0.777,0.422-0.834,0.418-2.137-0.277
			c0,0-1.309-0.824-0.84-1.58c0,0,1.367,2.293,2.423,0.724c0.967-1.437-0.587-2.553-0.587-2.553s-3.009-1.279-2.15-4.07
			c0,0-1.954,0.963-1.836,4.161c0,0-0.615,2.223-3.267,0.603C2.568,235.868,3.735,242.35,10.962,241.938z"/>
		<polygon fill="#00B1EB" stroke="#000000" stroke-width="0.2332" points="6.487,325.392 7.553,326.636 9.729,324.839 
			9.242,324.105 9.242,311.099 9.729,310.364 7.553,308.567 6.487,309.812 		"/>
		<path fill="#00B1EB" stroke="#000000" stroke-width="0.2332" d="M9.241,246.561c0,0-0.468-2.084,1.268-3.107
			c1.57-0.925-3.264-0.478-4.025,3.347l0.003,8.505l1.065,1.244l2.176-1.796l-0.487-0.734L9.241,246.561z"/>
		<polygon fill="#00B1EB" stroke="#000000" stroke-width="0.2332" points="6.487,290.349 7.553,291.593 9.729,289.796 
			9.242,289.062 9.242,276.055 9.729,275.321 7.553,273.524 6.487,274.769 		"/>
		<path fill="#00B1EB" stroke="#000000" stroke-width="0.2332" d="M10.962,119.387v-3.077c-0.777,0.422-0.834,0.418-2.137-0.277
			c0,0-1.309-0.824-0.84-1.58c0,0,1.367,2.294,2.423,0.724c0.967-1.437-0.587-2.553-0.587-2.553s-3.009-1.279-2.15-4.07
			c0,0-1.954,0.964-1.836,4.161c0,0-0.615,2.223-3.267,0.603C2.568,113.317,3.735,119.799,10.962,119.387z"/>
		<polygon fill="#00B1EB" stroke="#000000" stroke-width="0.2332" points="6.487,202.841 7.553,204.086 9.729,202.289 
			9.242,201.555 9.242,188.547 9.729,187.814 7.553,186.017 6.487,187.261 		"/>
		<path fill="#00B1EB" stroke="#000000" stroke-width="0.2332" d="M9.241,124.01c0,0-0.468-2.084,1.268-3.107
			c1.57-0.925-3.264-0.478-4.025,3.347l0.003,8.505l1.065,1.245l2.176-1.797l-0.487-0.734L9.241,124.01z"/>
		<polygon fill="#00B1EB" stroke="#000000" stroke-width="0.2332" points="6.487,167.798 7.553,169.042 9.729,167.246 
			9.242,166.512 9.242,153.504 9.729,152.771 7.553,150.974 6.487,152.218 		"/>
		<path fill="#00B1EB" stroke="#000000" stroke-width="0.2332" d="M18.138,227.8c1.446,2.491,2.75,4.879,3.157,5.629
			c0.848,1.563-0.91,2.505-0.91,2.505l-0.999-1.72l-1.772,2.556L20.873,242c-0.685-1.799,2.181-4.499,2.181-4.499
			c2.034-3.093,0.05-6.045,0.05-6.045c-1.316-2.632-2.287-4.578-3.192-6.215L18.138,227.8z"/>
		<path fill="#00B1EB" stroke="#000000" stroke-width="0.2332" d="M22.292,229.121l0.686-1.097c0,0,2.139-2.783,0.278-6.036
			c0,0-2.712-2.928-1.931-4.667l-6.316,8.907l1.536,2.62l3.964-5.515c0,0,1.702,1.084,0.771,2.575l-0.333,0.588L22.292,229.121z"/>
		<polygon fill="#00B1EB" stroke="#000000" stroke-width="0.2332" points="20.174,232.21 14.768,240.032 14.768,235.363 
			18.72,229.743 		"/>
		<polygon fill="#00B1EB" stroke="#000000" stroke-width="0.2332" points="14.294,271.611 13.229,272.856 11.052,271.059 
			11.54,270.325 11.54,258.938 11.052,258.205 13.229,256.407 14.294,257.652 		"/>
		<path fill="#00B1EB" stroke="#000000" stroke-width="0.2332" d="M15.72,223.511c-2.522-6.231-6.895-4.235-6.895-4.235
			s-1.309,0.825-0.84,1.58c0,0,1.367-2.293,2.423-0.724c0.967,1.437-0.587,2.553-0.587,2.553s-3.009,1.279-2.15,4.07
			c0,0-1.954-0.963-1.836-4.161c0,0-0.615-2.223-3.267-0.603c0,0,1.541-6.974,10.104-5.766c0,0,3.631,1.107,4.639,4.956
			L15.72,223.511z"/>
		<path fill="#00B1EB" stroke="#000000" stroke-width="0.2332" d="M14.135,338.012v-9.463l-1.516-1.168l-2.283,1.543l1.044,0.912
			l-0.001,7.467C11.379,337.303,13.255,337.151,14.135,338.012z"/>
		<polygon fill="#00B1EB" stroke="#000000" stroke-width="0.2332" points="14.294,307.415 13.229,308.659 11.052,306.862 
			11.54,306.128 11.54,294.842 11.052,294.109 13.229,292.312 14.294,293.556 		"/>
		<path fill="#00B1EB" stroke="#000000" stroke-width="0.2332" d="M9.225,333.521c0,0-0.134,2.261,1.257,3.107
			c1.556,0.946-3.249,0.478-4.01-3.346v-5.386l5.05-3.949v-12.473l-5.029-4.253l-0.005-14.103l5.035-3.71v-13.533l-5.035-4.046
			v-14.091l5.035-3.847v-23.085l0.911-1.266l1.846,2.887v22.696l-5.033,4.015v11.056l5.033,3.96v16.865l-5.015,3.968v10.922
			l5.015,4.102v15.424l-5.054,3.559V333.521z"/>
		<path fill="#00B1EB" stroke="#000000" stroke-width="0.2332" d="M16.018,333.18c0.761,3.824,5.566,4.292,4.01,3.346
			c-1.391-0.846-1.257-3.107-1.257-3.107l0.016-86.858c0,0-0.468-2.084,1.268-3.107c1.569-0.925-3.264-0.478-4.025,3.347
			L16.018,333.18z"/>
		<path fill="#00B1EB" stroke="#000000" stroke-width="0.2332" d="M18.138,105.25c1.446,2.49,2.75,4.879,3.157,5.629
			c0.848,1.563-0.91,2.506-0.91,2.506l-0.999-1.72l-1.772,2.556l3.259,5.229c-0.685-1.799,2.181-4.499,2.181-4.499
			c2.034-3.093,0.05-6.045,0.05-6.045c-1.316-2.632-2.287-4.578-3.192-6.215L18.138,105.25z"/>
		<path fill="#00B1EB" stroke="#000000" stroke-width="0.2332" d="M22.292,106.57l0.686-1.096c0,0,2.139-2.783,0.278-6.036
			c0,0-2.712-2.928-1.931-4.667l-6.316,8.907l1.536,2.62l3.964-5.516c0,0,1.702,1.084,0.771,2.574l-0.333,0.589L22.292,106.57z"/>
		<polygon fill="#00B1EB" stroke="#000000" stroke-width="0.2332" points="20.174,109.66 14.768,117.481 14.768,112.813 
			18.72,107.192 		"/>
		<polygon fill="#00B1EB" stroke="#000000" stroke-width="0.2332" points="14.294,149.061 13.229,150.305 11.052,148.508 
			11.54,147.774 11.54,136.388 11.052,135.654 13.229,133.857 14.294,135.102 		"/>
		<path fill="#00B1EB" stroke="#000000" stroke-width="0.2332" d="M15.72,100.96c-2.522-6.231-6.895-4.235-6.895-4.235
			s-1.309,0.825-0.84,1.58c0,0,1.367-2.293,2.423-0.724c0.967,1.437-0.587,2.554-0.587,2.554s-3.009,1.279-2.15,4.07
			c0,0-1.954-0.963-1.836-4.161c0,0-0.615-2.223-3.267-0.602c0,0,1.541-6.975,10.104-5.766c0,0,3.631,1.107,4.639,4.956
			L15.72,100.96z"/>
		<path fill="#00B1EB" stroke="#000000" stroke-width="0.2332" d="M14.135,216.011v-10.316l-1.516-1.169l-2.283,1.544l1.044,0.911
			l-0.004,8.518l0,0C11.376,215.499,12.39,215.094,14.135,216.011z"/>
		<polygon fill="#00B1EB" stroke="#000000" stroke-width="0.2332" points="14.294,184.864 13.229,186.108 11.052,184.312 
			11.54,183.578 11.54,172.292 11.052,171.558 13.229,169.761 14.294,171.006 		"/>
		<path fill="#00B1EB" stroke="#000000" stroke-width="0.2332" d="M9.225,211.578c0,0-0.134,2.261,1.257,3.107
			c1.556,0.946-3.249,0.478-4.01-3.346v-5.993l5.05-3.949v-12.473l-5.029-4.254l-0.005-14.103l5.035-3.711v-13.533l-5.035-4.046
			v-14.092l5.035-3.847v-23.085l0.911-1.266l1.846,2.887v22.697l-5.033,4.015v11.056l5.033,3.96v16.865l-5.015,3.968v10.922
			l5.015,4.102v15.424l-5.054,3.559V211.578z"/>
		<path fill="#00B1EB" stroke="#000000" stroke-width="0.2332" d="M16.018,212.959c0.761,3.824,5.566,4.292,4.01,3.346
			c-1.391-0.846-1.257-3.107-1.257-3.107l0.016-89.188c0,0-0.468-2.084,1.268-3.107c1.569-0.925-3.264-0.478-4.025,3.347
			L16.018,212.959z"/>
		<path fill="#00B1EB" stroke="#000000" stroke-width="0.2332" d="M14.096,222.031v3.598l3.008,5.088l-1.734,2.546l-3.829-6.028
			v-7.153C11.541,220.083,12.922,220.061,14.096,222.031z"/>
		<path fill="#00B1EB" stroke="#000000" stroke-width="0.2332" d="M14.096,99.582v3.598l3.008,5.088l-1.734,2.546l-3.829-6.028
			v-7.152C11.541,97.633,12.922,97.611,14.096,99.582z"/>
		<path fill="#00B1EB" stroke="#000000" stroke-width="0.2332" d="M10.647,674.387l2.277,2.176
			c-0.862,0.226-0.899,0.268-1.307,1.639c0,0-0.316,1.468,0.575,1.686c0,0-0.729-2.546,1.179-2.148
			c1.748,0.364,1.475,2.202,1.475,2.202s-1.183,2.937,1.491,4.331c0,0-2.095,0.637-4.378-1.705c0,0-2.081-1.157-2.758,1.778
			C9.2,684.345,5.229,678.972,10.647,674.387z"/>
		<path fill="#00B1EB" stroke="#000000" stroke-width="0.2332" d="M26.188,679.546c-0.82-2.738-1.666-5.308-1.933-6.113
			c-0.557-1.679-2.498-1.158-2.498-1.158l0.566,1.891l-3.146-0.612l-1.565-5.899c0.847,1.736,4.872,1.712,4.872,1.712
			c3.729,0.815,4.51,4.242,4.51,4.242c1.016,2.75,1.77,4.782,2.341,6.551L26.188,679.546z"/>
		<path fill="#00B1EB" stroke="#000000" stroke-width="0.2332" d="M28.148,675.808l1.296,0.314c0,0,3.573,0.524,4.664,4.082
			c0,0,0.248,3.902,2.088,4.604l-11.061-2.038l-0.853-2.891l6.887,1.228c0,0,0.401-1.917-1.36-2.342l-0.671-0.192L28.148,675.808z"
			/>
		<polygon fill="#00B1EB" stroke="#000000" stroke-width="0.2332" points="24.363,675.052 14.75,673.166 18.205,676.47 
			25.161,677.778 		"/>
		<path fill="#00B1EB" stroke="#000000" stroke-width="0.2332" d="M27.65,684.212c2.828,6.11-1.744,7.649-1.744,7.649
			s-1.537,0.3-1.764-0.551c0,0,2.665,0.7,2.25-1.123c-0.379-1.669-2.305-1.41-2.305-1.41s-3.076,1.126-4.534-1.429
			c0,0-0.669,2,1.781,4.183c0,0,1.21,1.988-1.865,2.631c0,0,6.251,3.895,11.416-2.739c0,0,1.75-3.233-0.386-6.637L27.65,684.212z"/>
		<path fill="#00B1EB" stroke="#000000" stroke-width="0.2332" d="M27.597,686.354l-2.663-2.544l-1.638-5.631l-3.111-0.631
			l1.753,6.85l5.293,5.06C27.231,689.458,28.225,688.541,27.597,686.354z"/>
		<path fill="#00B1EB" stroke="#000000" stroke-width="0.2332" d="M9.081,613.305c0,0-0.467-2.084,1.269-3.106
			c1.57-0.926-3.264-0.479-4.025,3.346l0.003,7.289l1.065,1.245l2.177-1.797l-0.487-0.733L9.081,613.305z"/>
		<polygon fill="#00B1EB" stroke="#000000" stroke-width="0.2332" points="6.328,655.877 7.393,657.121 9.57,655.324 9.083,654.591 
			9.083,641.583 9.57,640.85 7.393,639.053 6.328,640.297 		"/>
		<polygon fill="#00B1EB" stroke="#000000" stroke-width="0.2332" points="14.134,637.14 13.069,638.385 10.893,636.587 
			11.38,635.854 11.38,624.467 10.893,623.732 13.069,621.937 14.134,623.18 		"/>
		<polygon fill="#00B1EB" stroke="#000000" stroke-width="0.2332" points="11.226,660.371 10.946,659.789 13.122,657.992 
			13.968,659.084 13.968,673.266 19.887,679.021 20.672,682.319 19.095,682.018 11.226,673.948 		"/>
		<path fill="#00B1EB" stroke="#000000" stroke-width="0.2332" d="M14.12,608.739v11.91l-5.033,4.015v11.056l5.033,3.961v16.864
			l-5.015,3.968l-0.039,8.151c0,0-0.134,2.262,1.257,3.107c1.556,0.945-3.25,0.478-4.01-3.347l0.015-9.779l5.035-3.913v-13.33
			l-5.035-4.046v-14.092l5.035-3.848v-9.969C11.362,609.448,12.095,609.65,14.12,608.739z"/>
		<path fill="#00B1EB" stroke="#000000" stroke-width="0.2332" d="M15.859,663.361c0.761,3.824,5.566,4.292,4.01,3.347
			c-1.391-0.847-1.257-3.108-1.257-3.108l0.016-51.915c0,0-0.468-2.085,1.268-3.107c1.569-0.925-3.264-0.478-4.025,3.347
			L15.859,663.361z"/>
		<path fill="#00B1EB" stroke="#000000" stroke-width="0.2332" d="M10.909,460.217v3.076c-0.777-0.422-0.834-0.417-2.137,0.278
			c0,0-1.309,0.824-0.84,1.579c0,0,1.367-2.293,2.422-0.724c0.967,1.437-0.586,2.554-0.586,2.554s-3.009,1.279-2.15,4.069
			c0,0-1.954-0.963-1.836-4.16c0,0-0.616-2.224-3.267-0.603C2.515,466.287,3.682,459.805,10.909,460.217z"/>
		<polygon fill="#00B1EB" stroke="#000000" stroke-width="0.2332" points="6.434,376.763 7.5,375.518 9.676,377.315 9.188,378.049 
			9.188,391.057 9.676,391.791 7.5,393.587 6.434,392.343 		"/>
		<path fill="#00B1EB" stroke="#000000" stroke-width="0.2332" d="M9.188,455.594c0,0-0.468,2.084,1.268,3.107
			c1.569,0.925-3.264,0.478-4.025-3.347l0.003-8.505l1.066-1.244l2.176,1.797l-0.488,0.733L9.188,455.594z"/>
		<path fill="#00B1EB" stroke="#000000" stroke-width="0.2332" d="M10.909,363.985v-3.076c-0.777,0.422-0.834,0.418-2.137-0.277
			c0,0-1.309-0.824-0.84-1.58c0,0,1.367,2.293,2.422,0.724c0.967-1.437-0.586-2.553-0.586-2.553s-3.009-1.279-2.15-4.07
			c0,0-1.954,0.963-1.836,4.161c0,0-0.616,2.223-3.267,0.603C2.515,357.916,3.682,364.398,10.909,363.985z"/>
		<polygon fill="#00B1EB" stroke="#000000" stroke-width="0.2332" points="6.434,411.807 7.5,410.562 9.676,412.358 9.188,413.093 
			9.188,426.1 9.676,426.833 7.5,428.631 6.434,427.387 		"/>
		<path fill="#00B1EB" stroke="#000000" stroke-width="0.2332" d="M10.909,582.768v3.077c-0.777-0.423-0.834-0.419-2.137,0.276
			c0,0-1.309,0.825-0.84,1.58c0,0,1.367-2.293,2.422-0.724c0.967,1.437-0.586,2.554-0.586,2.554s-3.009,1.278-2.15,4.069
			c0,0-1.954-0.964-1.836-4.16c0,0-0.616-2.224-3.267-0.604C2.515,588.837,3.682,582.355,10.909,582.768z"/>
		<polygon fill="#00B1EB" stroke="#000000" stroke-width="0.2332" points="6.434,499.313 7.5,498.069 9.676,499.866 9.188,500.6 
			9.188,513.607 9.676,514.341 7.5,516.138 6.434,514.894 		"/>
		<path fill="#00B1EB" stroke="#000000" stroke-width="0.2332" d="M9.188,578.145c0,0-0.468,2.084,1.268,3.107
			c1.569,0.924-3.264,0.477-4.025-3.347l0.003-8.506l1.066-1.244l2.176,1.797l-0.488,0.734L9.188,578.145z"/>
		<polygon fill="#00B1EB" stroke="#000000" stroke-width="0.2332" points="6.434,534.356 7.5,533.112 9.676,534.909 9.188,535.643 
			9.188,548.65 9.676,549.385 7.5,551.182 6.434,549.937 		"/>
		<path fill="#00B1EB" stroke="#000000" stroke-width="0.2332" d="M18.085,474.354c1.446-2.491,2.75-4.879,3.157-5.629
			c0.849-1.563-0.909-2.506-0.909-2.506l-0.999,1.721l-1.772-2.557l3.258-5.229c-0.685,1.8,2.18,4.499,2.18,4.499
			c2.034,3.093,0.051,6.045,0.051,6.045c-1.317,2.632-2.287,4.577-3.192,6.215L18.085,474.354z"/>
		<path fill="#00B1EB" stroke="#000000" stroke-width="0.2332" d="M22.238,473.033l0.686,1.098c0,0,2.139,2.782,0.278,6.035
			c0,0-2.712,2.928-1.931,4.667l-6.316-8.907l1.536-2.62l3.964,5.516c0,0,1.703-1.085,0.771-2.575l-0.333-0.588L22.238,473.033z"/>
		<polygon fill="#00B1EB" stroke="#000000" stroke-width="0.2332" points="20.121,469.944 14.714,462.123 14.714,466.791 
			18.667,472.412 		"/>
		<polygon fill="#00B1EB" stroke="#000000" stroke-width="0.2332" points="14.241,430.543 13.175,429.299 10.999,431.096 
			11.486,431.83 11.486,443.216 10.999,443.95 13.175,445.747 14.241,444.502 		"/>
		<path fill="#00B1EB" stroke="#000000" stroke-width="0.2332" d="M15.667,478.644c-2.521,6.23-6.895,4.234-6.895,4.234
			s-1.309-0.824-0.84-1.579c0,0,1.367,2.293,2.422,0.724c0.967-1.437-0.586-2.554-0.586-2.554s-3.009-1.278-2.15-4.069
			c0,0-1.954,0.963-1.836,4.161c0,0-0.616,2.222-3.267,0.602c0,0,1.541,6.975,10.104,5.767c0,0,3.631-1.107,4.639-4.956
			L15.667,478.644z"/>
		<polygon fill="#00B1EB" stroke="#000000" stroke-width="0.2332" points="11.328,372.319 10.283,373.23 12.565,374.774 
			14.082,373.606 14.082,354.428 11.938,351.252 11.323,351.9 		"/>
		<polygon fill="#00B1EB" stroke="#000000" stroke-width="0.2332" points="14.241,394.74 13.175,393.495 10.999,395.292 
			11.486,396.026 11.486,407.312 10.999,408.046 13.175,409.843 14.241,408.599 		"/>
		<path fill="#00B1EB" stroke="#000000" stroke-width="0.2332" d="M9.172,368.635c0,0-0.134-2.262,1.257-3.107
			c1.556-0.946-3.25-0.479-4.01,3.347v5.385l5.049,3.949v12.472l-5.029,4.254l-0.005,14.104l5.035,3.711v13.533l-5.035,4.046v14.091
			l5.035,3.848v23.086l0.911,1.266l1.847-2.887v-22.696l-5.033-4.015v-11.057l5.033-3.961v-16.864l-5.015-3.968v-10.921l5.015-4.103
			v-15.424l-5.054-3.559V368.635z"/>
		<path fill="#00B1EB" stroke="#000000" stroke-width="0.2332" d="M18.085,349.847c1.446,2.492,2.75,4.88,3.157,5.63
			c0.849,1.563-0.909,2.505-0.909,2.505l-0.999-1.72l-1.772,2.557l3.258,5.229c-0.685-1.799,2.18-4.499,2.18-4.499
			c2.034-3.093,0.051-6.045,0.051-6.045c-1.317-2.631-2.287-4.578-3.192-6.215L18.085,349.847z"/>
		<path fill="#00B1EB" stroke="#000000" stroke-width="0.2332" d="M14.042,343.674v3.901l2.636,4.431l-1.733,2.547l-3.458-5.371
			v-7.457C11.487,341.725,12.87,341.703,14.042,343.674z"/>
		<path fill="#00B1EB" stroke="#000000" stroke-width="0.2332" d="M22.238,351.168l0.686-1.097c0,0,2.139-2.783,0.278-6.036
			c0,0-2.712-2.928-1.931-4.667l-6.316,8.907l1.536,2.62l3.964-5.515c0,0,1.703,1.084,0.771,2.575l-0.333,0.588L22.238,351.168z"/>
		<polygon fill="#00B1EB" stroke="#000000" stroke-width="0.2332" points="20.121,354.258 14.714,362.08 14.714,357.411 
			18.667,351.791 		"/>
		<path fill="#00B1EB" stroke="#000000" stroke-width="0.2332" d="M15.667,345.559c-2.521-6.231-6.895-4.235-6.895-4.235
			s-1.309,0.825-0.84,1.58c0,0,1.367-2.293,2.422-0.724c0.967,1.437-0.586,2.553-0.586,2.553s-3.009,1.279-2.15,4.07
			c0,0-1.954-0.963-1.836-4.161c0,0-0.616-2.223-3.267-0.603c0,0,1.541-6.974,10.104-5.766c0,0,3.631,1.107,4.639,4.956
			L15.667,345.559z"/>
		<path fill="#00B1EB" stroke="#000000" stroke-width="0.2332" d="M15.965,368.975c0.761-3.824,5.566-4.292,4.01-3.347
			c-1.392,0.847-1.257,3.108-1.257,3.108l0.016,86.857c0,0-0.468,2.084,1.268,3.107c1.569,0.925-3.264,0.478-4.025-3.347
			L15.965,368.975z"/>
		<path fill="#00B1EB" stroke="#000000" stroke-width="0.2332" d="M18.085,596.905c1.446-2.49,2.75-4.879,3.157-5.63
			c0.849-1.563-0.909-2.505-0.909-2.505l-0.999,1.72l-1.772-2.557l3.258-5.229c-0.685,1.799,2.18,4.498,2.18,4.498
			c2.034,3.094,0.051,6.046,0.051,6.046c-1.317,2.631-2.287,4.577-3.192,6.215L18.085,596.905z"/>
		<path fill="#00B1EB" stroke="#000000" stroke-width="0.2332" d="M22.238,595.584l0.686,1.097c0,0,2.139,2.783,0.278,6.035
			c0,0-2.712,2.929-1.931,4.667l-6.316-8.906l1.536-2.62l3.964,5.515c0,0,1.703-1.084,0.771-2.574l-0.333-0.589L22.238,595.584z"/>
		<polygon fill="#00B1EB" stroke="#000000" stroke-width="0.2332" points="20.121,592.495 14.714,584.674 14.714,589.342 
			18.667,594.962 		"/>
		<polygon fill="#00B1EB" stroke="#000000" stroke-width="0.2332" points="14.241,553.094 13.175,551.85 10.999,553.646 
			11.486,554.38 11.486,565.767 10.999,566.501 13.175,568.298 14.241,567.054 		"/>
		<path fill="#00B1EB" stroke="#000000" stroke-width="0.2332" d="M15.667,601.193c-2.521,6.231-6.895,4.235-6.895,4.235
			s-1.309-0.825-0.84-1.58c0,0,1.367,2.293,2.422,0.725c0.967-1.438-0.586-2.554-0.586-2.554s-3.009-1.278-2.15-4.07
			c0,0-1.954,0.963-1.836,4.161c0,0-0.616,2.223-3.267,0.603c0,0,1.541,6.974,10.104,5.766c0,0,3.631-1.106,4.639-4.955
			L15.667,601.193z"/>
		<path fill="#00B1EB" stroke="#000000" stroke-width="0.2332" d="M14.082,486.144v10.316l-1.516,1.168l-2.283-1.543l1.045-0.911
			l-0.005-8.518l0,0C11.323,486.656,12.337,487.061,14.082,486.144z"/>
		<polygon fill="#00B1EB" stroke="#000000" stroke-width="0.2332" points="14.241,517.291 13.175,516.046 10.999,517.843 
			11.486,518.577 11.486,529.862 10.999,530.597 13.175,532.394 14.241,531.149 		"/>
		<path fill="#00B1EB" stroke="#000000" stroke-width="0.2332" d="M9.172,490.577c0,0-0.134-2.262,1.257-3.107
			c1.556-0.945-3.25-0.479-4.01,3.346v5.994l5.049,3.948v12.474l-5.029,4.253l-0.005,14.103l5.035,3.712v13.532l-5.035,4.046v14.092
			l5.035,3.847v23.086l0.911,1.266l1.847-2.886v-22.697l-5.033-4.015v-11.056l5.033-3.96v-16.865l-5.015-3.968v-10.922l5.015-4.102
			v-15.424l-5.054-3.559V490.577z"/>
		<path fill="#00B1EB" stroke="#000000" stroke-width="0.2332" d="M15.965,489.195c0.761-3.824,5.566-4.292,4.01-3.346
			c-1.392,0.846-1.257,3.107-1.257,3.107l0.016,89.188c0,0-0.468,2.084,1.268,3.107c1.569,0.924-3.264,0.477-4.025-3.347
			L15.965,489.195z"/>
		<path fill="#00B1EB" stroke="#000000" stroke-width="0.2332" d="M14.042,480.124v-3.599l3.007-5.088l-1.733-2.547l-3.829,6.029
			v7.152C11.487,482.072,12.87,482.094,14.042,480.124z"/>
		<path fill="#00B1EB" stroke="#000000" stroke-width="0.2332" d="M14.042,602.572v-3.598l3.007-5.088l-1.733-2.547l-3.829,6.029
			v7.152C11.487,604.521,12.87,604.543,14.042,602.572z"/>
		<path fill="#00B1EB" stroke="#000000" stroke-width="0.2332" d="M112.835,8.887c0,0,2.183-0.447,3.254,1.211
			c0.969,1.499,0.5-3.117-3.505-3.843l-11.876,0.003l-1.304,1.018l1.882,2.078l0.769-0.465L112.835,8.887z"/>
		<polygon fill="#00B1EB" stroke="#000000" stroke-width="0.2332" points="55.312,6.257 54.009,7.275 55.891,9.353 56.659,8.888 
			74.735,8.888 75.504,9.353 77.386,7.275 76.082,6.257 		"/>
		<polygon fill="#00B1EB" stroke="#000000" stroke-width="0.2332" points="79.707,13.712 78.403,12.695 80.285,10.616 
			81.054,11.082 96.903,11.082 97.672,10.616 99.554,12.695 98.25,13.712 		"/>
		<path fill="#00B1EB" stroke="#000000" stroke-width="0.2332" d="M32.508,13.712h19.339l1.144-0.967l-1.882-2.078l-0.609,0.415
			H32.211C32.211,11.082,32.994,12.856,32.508,13.712z"/>
		<path fill="#00B1EB" stroke="#000000" stroke-width="0.2332" d="M117.722,13.698H100.9l-4.204-4.806H80.981l-4.147,4.806H54.718
			L50.563,8.89H35.557c0,0-2.369-0.146-3.254,1.182c-0.991,1.486-0.501-3.103,3.504-3.83l16.711,0.015l4.099,4.808H75.03
			l4.237-4.808h18.894l4.029,4.808h14.789C116.979,11.065,116.768,11.764,117.722,13.698z"/>
		<path fill="#00B1EB" stroke="#000000" stroke-width="0.2332" d="M41.216,15.358c-4.005,0.726-4.495,5.315-3.504,3.83
			c0.886-1.329,3.254-1.201,3.254-1.201l72.399,0.015c0,0,2.183-0.447,3.254,1.211c0.969,1.498,0.5-3.117-3.505-3.844L41.216,15.358
			z"/>
	</g>
</g>
</svg>
